<svg width="24" height="24" viewBox="0 0 24 24" fill="none" xmlns="http://www.w3.org/2000/svg">
<g opacity="0.7">
<path d="M20.346 9.15879C20.3366 8.4534 20.2043 7.75501 19.9551 7.09488C19.739 6.53807 19.4089 6.03238 18.986 5.61013C18.563 5.18788 18.0565 4.85835 17.4987 4.64259C16.846 4.39798 16.1564 4.26571 15.4594 4.25142C14.5619 4.21137 14.2774 4.2002 11.9992 4.2002C9.72098 4.2002 9.42897 4.2002 8.53804 4.25142C7.84129 4.26581 7.15204 4.39808 6.49961 4.64259C5.94178 4.8582 5.43517 5.18767 5.01219 5.60994C4.58922 6.03221 4.25919 6.53798 4.04323 7.09488C3.79772 7.74603 3.66552 8.43429 3.65234 9.12992C3.61223 10.0268 3.6001 10.3109 3.6001 12.5853C3.6001 14.8597 3.6001 15.1503 3.65234 16.0407C3.66633 16.7373 3.79788 17.4247 4.04323 18.0776C4.25956 18.6343 4.58983 19.1399 5.01294 19.562C5.43606 19.984 5.94272 20.3134 6.50054 20.5289C7.15119 20.7834 7.84056 20.9251 8.53897 20.948C9.43737 20.9881 9.72191 21.0002 12.0001 21.0002C14.2783 21.0002 14.5703 21.0002 15.4612 20.948C16.1583 20.9343 16.8479 20.8024 17.5006 20.5578C18.0582 20.3418 18.5646 20.0122 18.9875 19.59C19.4104 19.1677 19.7406 18.6622 19.957 18.1055C20.2023 17.4535 20.3339 16.7662 20.3479 16.0686C20.388 15.1726 20.4001 14.8886 20.4001 12.6132C20.3982 10.3388 20.3982 10.0501 20.346 9.15879ZM11.9936 16.8863C9.61089 16.8863 7.68068 14.9593 7.68068 12.5806C7.68068 10.2019 9.61089 8.27493 11.9936 8.27493C13.1374 8.27493 14.2344 8.72856 15.0432 9.53604C15.8521 10.3435 16.3065 11.4387 16.3065 12.5806C16.3065 13.7226 15.8521 14.8178 15.0432 15.6252C14.2344 16.4327 13.1374 16.8863 11.9936 16.8863ZM16.4781 9.11968C15.9212 9.11968 15.4724 8.67076 15.4724 8.11566C15.4724 7.98388 15.4984 7.85338 15.5489 7.73162C15.5995 7.60987 15.6735 7.49924 15.7668 7.40605C15.8602 7.31286 15.971 7.23894 16.093 7.18851C16.2149 7.13807 16.3456 7.11211 16.4776 7.11211C16.6097 7.11211 16.7404 7.13807 16.8623 7.18851C16.9843 7.23894 17.0951 7.31286 17.1884 7.40605C17.2818 7.49924 17.3558 7.60987 17.4063 7.73162C17.4569 7.85338 17.4829 7.98388 17.4829 8.11566C17.4829 8.67076 17.0332 9.11968 16.4781 9.11968Z" fill="#1F1F1F"/>
<path d="M11.9942 15.5822C13.6527 15.5822 14.9972 14.2377 14.9972 12.5792C14.9972 10.9207 13.6527 9.57617 11.9942 9.57617C10.3357 9.57617 8.99121 10.9207 8.99121 12.5792C8.99121 14.2377 10.3357 15.5822 11.9942 15.5822Z" fill="#1F1F1F"/>
</g>
</svg>
