<svg width="24" height="24" viewBox="0 0 24 24" fill="none" xmlns="http://www.w3.org/2000/svg">
<g opacity="0.7">
<path d="M5.4001 7.8001C6.39421 7.8001 7.2001 6.8599 7.2001 5.7001C7.2001 4.5403 6.39421 3.6001 5.4001 3.6001C4.40598 3.6001 3.6001 4.5403 3.6001 5.7001C3.6001 6.8599 4.40598 7.8001 5.4001 7.8001Z" fill="#1F1F1F"/>
<path d="M9.36305 9.27492V20.3991H12.8994V14.8979C12.8994 13.4464 13.1791 12.0406 15.0218 12.0406C16.8393 12.0406 16.8618 13.7002 16.8618 14.9896V20.4H20.4001V14.2995C20.4001 11.3029 19.7395 9 16.1534 9C14.4317 9 13.2776 9.92281 12.8056 10.7961H12.7578V9.27492H9.36305ZM3.6001 9.27492H7.14212V20.3991H3.6001V9.27492Z" fill="#1F1F1F"/>
</g>
</svg>
